<svg width="4" height="13" viewBox="0 0 4 13" fill="none" xmlns="http://www.w3.org/2000/svg">
<path d="M1.585 12.68C1.14912 12.68 0.776122 12.5249 0.465991 12.2148C0.15586 11.9047 0.000529675 11.5314 1.34322e-06 11.095C-0.000526989 10.6586 0.154803 10.2856 0.465991 9.97597C0.777178 9.66637 1.15018 9.51104 1.585 9.50998C2.01982 9.50893 2.39308 9.66426 2.7048 9.97597C3.01651 10.2877 3.17158 10.6607 3.16999 11.095C3.16841 11.5293 3.01334 11.9025 2.7048 12.2148C2.39625 12.527 2.02299 12.6821 1.585 12.68ZM1.585 7.92499C1.14912 7.92499 0.776122 7.76992 0.465991 7.45979C0.15586 7.14966 0.000529675 6.77639 1.34322e-06 6.33999C-0.000526989 5.90359 0.154803 5.53059 0.465991 5.22098C0.777178 4.91138 1.15018 4.75605 1.585 4.75499C2.01982 4.75394 2.39308 4.90927 2.7048 5.22098C3.01651 5.5327 3.17158 5.9057 3.16999 6.33999C3.16841 6.77428 3.01334 7.14755 2.7048 7.45979C2.39625 7.77204 2.02299 7.9271 1.585 7.92499ZM1.585 3.17C1.14912 3.17 0.776122 3.01493 0.465991 2.7048C0.15586 2.39467 0.000529675 2.0214 1.34322e-06 1.585C-0.000526989 1.1486 0.154803 0.775597 0.465991 0.465994C0.777178 0.156392 1.15018 0.00106202 1.585 5.35472e-06C2.01982 -0.00105131 2.39308 0.154278 2.7048 0.465994C3.01651 0.77771 3.17158 1.15071 3.16999 1.585C3.16841 2.01929 3.01334 2.39256 2.7048 2.7048C2.39625 3.01705 2.02299 3.17211 1.585 3.17Z" fill="black"/>
</svg>
