<svg width="20" height="21" viewBox="0 0 20 21" fill="none" xmlns="http://www.w3.org/2000/svg">
<path d="M10 20.5C7.22222 20.5 4.86111 19.5278 2.91667 17.5833C0.972222 15.6389 0 13.2778 0 10.5C0 7.72222 0.972222 5.36111 2.91667 3.41667C4.86111 1.47222 7.22222 0.5 10 0.5C10.2593 0.5 10.5141 0.509259 10.7644 0.527778C11.0148 0.546296 11.26 0.574074 11.5 0.611111C10.7407 1.14815 10.1341 1.84741 9.68 2.70889C9.22593 3.57037 8.99926 4.50074 9 5.5C9 7.16667 9.58333 8.58333 10.75 9.75C11.9167 10.9167 13.3333 11.5 15 11.5C16.0185 11.5 16.9537 11.273 17.8056 10.8189C18.6574 10.3648 19.3519 9.75852 19.8889 9C19.9259 9.24074 19.9537 9.48593 19.9722 9.73556C19.9907 9.98519 20 10.24 20 10.5C20 13.2778 19.0278 15.6389 17.0833 17.5833C15.1389 19.5278 12.7778 20.5 10 20.5ZM10 18.2778C11.6296 18.2778 13.0926 17.8285 14.3889 16.93C15.6852 16.0315 16.6296 14.8604 17.2222 13.4167C16.8519 13.5093 16.4815 13.5833 16.1111 13.6389C15.7407 13.6944 15.3704 13.7222 15 13.7222C12.7222 13.7222 10.7822 12.9211 9.18 11.3189C7.57778 9.71667 6.77704 7.77704 6.77778 5.5C6.77778 5.12963 6.80556 4.75926 6.86111 4.38889C6.91667 4.01852 6.99074 3.64815 7.08333 3.27778C5.63889 3.87037 4.46741 4.81482 3.56889 6.11111C2.67037 7.40741 2.22148 8.87037 2.22222 10.5C2.22222 12.6481 2.98148 14.4815 4.5 16C6.01852 17.5185 7.85185 18.2778 10 18.2778Z" fill="#252525"/>
</svg>
