<svg width="36" height="36" viewBox="0 0 36 36" fill="none" xmlns="http://www.w3.org/2000/svg">
<path d="M3 33L10.5 12L24 25.5L3 33ZM7.95 28.05L18.525 24.3L11.7 17.475L7.95 28.05ZM21.825 18.825L20.25 17.25L28.65 8.85C29.45 8.05 30.4125 7.65 31.5375 7.65C32.6625 7.65 33.625 8.05 34.425 8.85L35.325 9.75L33.75 11.325L32.85 10.425C32.5 10.075 32.0625 9.9 31.5375 9.9C31.0125 9.9 30.575 10.075 30.225 10.425L21.825 18.825ZM15.825 12.825L14.25 11.25L15.15 10.35C15.5 10 15.675 9.575 15.675 9.075C15.675 8.575 15.5 8.15 15.15 7.8L14.175 6.825L15.75 5.25L16.725 6.225C17.525 7.025 17.925 7.975 17.925 9.075C17.925 10.175 17.525 11.125 16.725 11.925L15.825 12.825ZM18.825 15.825L17.25 14.25L22.65 8.85C23 8.5 23.175 8.0625 23.175 7.5375C23.175 7.0125 23 6.575 22.65 6.225L20.25 3.825L21.825 2.25L24.225 4.65C25.025 5.45 25.425 6.4125 25.425 7.5375C25.425 8.6625 25.025 9.625 24.225 10.425L18.825 15.825ZM24.825 21.825L23.25 20.25L25.65 17.85C26.45 17.05 27.4125 16.65 28.5375 16.65C29.6625 16.65 30.625 17.05 31.425 17.85L33.825 20.25L32.25 21.825L29.85 19.425C29.5 19.075 29.0625 18.9 28.5375 18.9C28.0125 18.9 27.575 19.075 27.225 19.425L24.825 21.825Z" fill="#19B66D"/>
</svg>
