<svg width="20" height="11" viewBox="0 0 20 11" fill="none" xmlns="http://www.w3.org/2000/svg">
<path d="M5.36428 5.58967C4.99859 6.83737 4.475 7.88976 3.7935 8.74684C3.11199 9.60393 2.24764 10.3149 1.20045 10.8799C1.01761 10.9797 0.826458 11.0173 0.626994 10.9927C0.427529 10.9681 0.261308 10.8806 0.128332 10.7302C0.0119776 10.6137 -0.0252557 10.4806 0.0166318 10.3309C0.0585194 10.1812 0.162241 10.0647 0.327797 9.98156C1.39161 9.43258 2.25595 8.73819 2.92084 7.89841C3.58572 7.05863 4.06776 5.96465 4.36696 4.61647H0.602061C0.43584 4.61647 0.298874 4.55825 0.191163 4.44179C0.0834524 4.32534 0.0292644 4.18394 0.0285996 4.01758C0.0279347 3.85122 0.0861121 3.71381 0.203131 3.60534C0.320151 3.49687 0.461438 3.44297 0.626994 3.44364H4.56642C4.61629 3.02774 4.65784 2.59521 4.69109 2.14604C4.72433 1.69687 4.74926 1.22274 4.76589 0.723663C4.76589 0.540668 4.82406 0.382627 4.94042 0.249539C5.05677 0.116452 5.20637 0.0499075 5.38921 0.0499075C5.57206 0.0499075 5.72165 0.116452 5.83801 0.249539C5.95436 0.382627 6.01254 0.540668 6.01254 0.723663C5.99592 1.22274 5.97531 1.69687 5.95071 2.14604C5.92611 2.59521 5.88023 3.02774 5.81308 3.44364H10.1514C10.3177 3.44364 10.455 3.49787 10.5633 3.60634C10.6717 3.7148 10.7256 3.85188 10.7249 4.01758C10.7242 4.18327 10.6704 4.32468 10.5633 4.44179C10.4563 4.55891 10.319 4.61714 10.1514 4.61647H6.26187C6.6608 5.81426 7.20102 6.86232 7.88252 7.76066C8.56403 8.659 9.36188 9.3494 10.2761 9.83184C10.4423 9.91502 10.5587 10.0441 10.6252 10.2191C10.6916 10.3941 10.6667 10.5478 10.5504 10.6803C10.4174 10.8466 10.2468 10.9464 10.0387 10.9797C9.83063 11.013 9.63548 10.9714 9.45331 10.8549C8.55571 10.3392 7.76218 9.6362 7.07269 8.74584C6.38321 7.85549 5.81374 6.80343 5.36428 5.58967ZM15.4372 9.23294C15.9027 9.23294 16.3558 9.12481 16.7966 8.90854C17.2374 8.69228 17.6403 8.38451 18.0054 7.98525V5.34014C17.623 5.39004 17.27 5.44827 16.9462 5.51481C16.6224 5.58136 16.3189 5.65622 16.0356 5.7394C15.2876 5.9723 14.7268 6.26343 14.3532 6.61278C13.9795 6.96214 13.7923 7.36972 13.7917 7.83553C13.7917 8.26806 13.9413 8.6091 14.2405 8.85863C14.5397 9.10817 14.9386 9.23294 15.4372 9.23294ZM14.8638 10.9298C13.9163 10.9298 13.1683 10.6596 12.6198 10.1193C12.0713 9.57897 11.797 8.84266 11.797 7.91039C11.797 7.04532 12.0713 6.33829 12.6198 5.7893C13.1683 5.24032 14.0493 4.79947 15.2627 4.46675C15.645 4.36693 16.0649 4.27544 16.5223 4.19226C16.9798 4.10908 17.4741 4.03421 18.0054 3.96767C17.9721 3.18578 17.7893 2.61583 17.4568 2.25783C17.1244 1.89982 16.6091 1.72115 15.911 1.72182C15.5619 1.72182 15.2212 1.77173 14.8887 1.87154C14.5563 1.97136 14.1657 2.13772 13.7169 2.37062C13.5174 2.48707 13.3096 2.52034 13.0935 2.47044C12.8774 2.42053 12.7112 2.29576 12.5949 2.09613C12.4785 1.8965 12.4536 1.68422 12.5201 1.4593C12.5866 1.23439 12.7195 1.06403 12.919 0.948248C13.4343 0.665437 13.9871 0.43686 14.5776 0.262515C15.168 0.0881705 15.7704 0.000665437 16.3847 0C17.5649 0 18.4625 0.36599 19.0775 1.09797C19.6925 1.82995 20 2.89465 20 4.29207V9.88174C20 10.1146 19.9209 10.3103 19.7626 10.4687C19.6044 10.627 19.4093 10.7059 19.1772 10.7052H19.0525C18.8365 10.7052 18.6536 10.6344 18.504 10.4926C18.3544 10.3509 18.263 10.1805 18.2298 9.98156L18.1799 9.5823C17.7145 9.9982 17.2035 10.3269 16.647 10.5685C16.0905 10.81 15.4961 10.9305 14.8638 10.9298Z" fill="black"/>
</svg>
