<svg width="13" height="16" viewBox="0 0 13 16" fill="none" xmlns="http://www.w3.org/2000/svg">
<path d="M2.76749 15.9722C2.04143 15.9722 1.42178 15.7156 0.90854 15.2024C0.395295 14.6891 0.138672 14.0695 0.138672 13.3434V3.57926C0.138672 2.8532 0.395295 2.23355 0.90854 1.72031C1.42178 1.20706 2.04143 0.950439 2.76749 0.950439H12.1561V12.2168C11.8432 12.2168 11.5773 12.3265 11.3585 12.5458C11.1396 12.7651 11.03 13.031 11.0295 13.3434C11.029 13.6559 11.1386 13.922 11.3585 14.1418C11.5783 14.3617 11.8442 14.4711 12.1561 14.4701V15.9722H2.76749ZM1.64085 10.9587C1.81611 10.8711 1.99762 10.8085 2.18539 10.7709C2.37317 10.7334 2.5672 10.7146 2.76749 10.7146H3.14303V2.45262H2.76749C2.45453 2.45262 2.18865 2.56228 1.96983 2.7816C1.75101 3.00092 1.64135 3.2668 1.64085 3.57926V10.9587ZM4.64521 10.7146H10.6539V2.45262H4.64521V10.7146ZM2.76749 14.4701H9.77141C9.6963 14.2948 9.63696 14.1166 9.5934 13.9353C9.54983 13.754 9.5278 13.5567 9.5273 13.3434C9.5273 13.1431 9.54608 12.9491 9.58363 12.7613C9.62119 12.5736 9.68378 12.3921 9.77141 12.2168H2.76749C2.44202 12.2168 2.17288 12.3265 1.96007 12.5458C1.74726 12.7651 1.64085 13.031 1.64085 13.3434C1.64085 13.6689 1.74726 13.938 1.96007 14.1509C2.17288 14.3637 2.44202 14.4701 2.76749 14.4701Z" fill="white"/>
</svg>
