<svg width="37" height="37" viewBox="0 0 37 37" fill="none" xmlns="http://www.w3.org/2000/svg">
<path d="M4.20074 32.375C3.9181 32.375 3.66115 32.3046 3.4299 32.1638C3.19865 32.023 3.01879 31.8364 2.89032 31.6042C2.76185 31.3719 2.69145 31.1211 2.67911 30.8518C2.66678 30.5826 2.73718 30.3194 2.89032 30.0625L17.1507 5.39583C17.3049 5.13889 17.5043 4.94618 17.7489 4.81771C17.9935 4.68924 18.2438 4.625 18.4997 4.625C18.7556 4.625 19.0064 4.68924 19.252 4.81771C19.4977 4.94618 19.6965 5.13889 19.8487 5.39583L34.1091 30.0625C34.2632 30.3194 34.3342 30.5831 34.3218 30.8534C34.3095 31.1237 34.2386 31.3739 34.1091 31.6042C33.9796 31.8344 33.7997 32.0209 33.5695 32.1638C33.3393 32.3067 33.0823 32.3771 32.7987 32.375H4.20074ZM6.86011 29.2917H30.1393L18.4997 9.25L6.86011 29.2917ZM18.4997 27.75C18.9365 27.75 19.3029 27.602 19.5989 27.306C19.8949 27.01 20.0424 26.6441 20.0414 26.2083C20.0403 25.7726 19.8923 25.4067 19.5974 25.1107C19.3024 24.8147 18.9365 24.6667 18.4997 24.6667C18.0629 24.6667 17.697 24.8147 17.402 25.1107C17.1071 25.4067 16.9591 25.7726 16.958 26.2083C16.957 26.6441 17.105 27.0105 17.402 27.3075C17.6991 27.6046 18.0649 27.7521 18.4997 27.75ZM18.4997 23.125C18.9365 23.125 19.3029 22.977 19.5989 22.681C19.8949 22.385 20.0424 22.0191 20.0414 21.5833V16.9583C20.0414 16.5215 19.8934 16.1556 19.5974 15.8607C19.3014 15.5657 18.9355 15.4177 18.4997 15.4167C18.0639 15.4156 17.698 15.5636 17.402 15.8607C17.106 16.1577 16.958 16.5236 16.958 16.9583V21.5833C16.958 22.0201 17.106 22.3865 17.402 22.6825C17.698 22.9785 18.0639 23.126 18.4997 23.125Z" fill="#CE2828"/>
</svg>
